<?xml version="1.0" standalone="no"?>
<!DOCTYPE svg PUBLIC "-//W3C//DTD SVG 20010904//EN"
 "http://www.w3.org/TR/2001/REC-SVG-20010904/DTD/svg10.dtd">
<svg version="1.0" xmlns="http://www.w3.org/2000/svg"
 width="225.000000pt" height="225.000000pt" viewBox="0 0 225.000000 225.000000"
 preserveAspectRatio="xMidYMid meet">
<metadata>
Created by potrace 1.14, written by Peter Selinger 2001-2017
</metadata>
<g transform="translate(0.000000,225.000000) scale(0.100000,-0.100000)"
fill="#000000" stroke="none">
<path d="M1005 2104 c-160 -26 -294 -76 -420 -158 -202 -132 -349 -336 -412
-573 -38 -143 -38 -353 0 -496 94 -353 366 -619 724 -709 132 -33 341 -31 476
5 378 101 660 410 722 790 96 593 -342 1125 -940 1142 -66 2 -133 1 -150 -1z
m-83 -541 c60 -23 123 -67 150 -106 23 -32 23 -33 28 -445 3 -226 3 -412 0
-412 -4 0 -12 15 -18 34 -16 44 -77 106 -127 131 -32 16 -61 20 -146 20 -104
0 -108 -1 -178 -38 -40 -20 -79 -37 -86 -37 -13 0 -15 53 -15 369 0 203 3 377
6 386 9 23 87 74 147 96 67 24 181 25 239 2z m680 -17 c31 -15 71 -40 87 -55
l31 -29 0 -376 c0 -322 -2 -376 -15 -376 -7 0 -46 17 -86 38 -70 36 -74 37
-178 37 -85 0 -114 -4 -146 -20 -50 -25 -111 -87 -127 -131 -6 -19 -14 -34
-18 -34 -3 0 -3 186 0 412 5 412 5 413 28 445 26 37 88 82 147 106 64 27 204
19 277 -17z"/>
</g>
</svg>
